<?xml version="1.0" encoding="UTF-8" standalone="no"?>
<!DOCTYPE svg PUBLIC "-//W3C//DTD SVG 1.1//EN" "http://www.w3.org/Graphics/SVG/1.1/DTD/svg11.dtd">
<svg xmlns="http://www.w3.org/2000/svg" version="1.1" viewBox="0 0 467 467">
<g stroke-width="2.00" fill="none" stroke-linecap="butt">
<path stroke="#808080" vector-effect="non-scaling-stroke" d="
  M 256.81 378.82
  C 259.64 384.05 264.08 388.75 270.50 388.75
  Q 293.26 388.74 316.02 388.76
  C 325.19 388.77 325.87 383.03 322.06 376.07
  Q 289.92 317.31 257.79 258.62
  A 0.79 0.79 0.0 0 1 257.80 257.85
  L 361.00 75.32
  Q 362.26 73.08 361.94 70.53
  C 361.37 66.11 357.44 65.27 353.36 65.26
  Q 331.67 65.23 309.95 65.26
  C 304.57 65.26 299.54 66.47 296.98 71.02
  Q 244.29 164.33 191.53 257.97
  A 0.63 0.62 -44.5 0 0 191.52 258.57
  Q 224.26 318.61 256.81 378.82"
/>
<path stroke="#808080" vector-effect="non-scaling-stroke" d="
  M 170.03 136.17
  C 167.42 131.70 163.19 128.99 157.94 128.98
  Q 134.50 128.92 111.07 129.05
  C 104.65 129.08 103.24 135.39 106.04 140.20
  Q 121.22 166.27 136.99 193.30
  A 1.24 1.24 0.0 0 1 137.00 194.55
  Q 112.97 236.69 88.95 279.24
  C 84.90 286.41 86.07 291.74 95.32 291.75
  Q 116.86 291.76 138.42 291.74
  C 143.55 291.73 148.50 290.49 151.01 286.23
  Q 160.10 270.78 203.29 194.22
  A 0.89 0.88 -45.9 0 0 203.28 193.35
  Q 186.63 164.69 170.03 136.17"
/>
</g>
<path fill="#000000" d="
  M 0.00 0.00
  L 467.00 0.00
  L 467.00 467.00
  L 0.00 467.00
  L 0.00 0.00
  Z
  M 256.81 378.82
  C 259.64 384.05 264.08 388.75 270.50 388.75
  Q 293.26 388.74 316.02 388.76
  C 325.19 388.77 325.87 383.03 322.06 376.07
  Q 289.92 317.31 257.79 258.62
  A 0.79 0.79 0.0 0 1 257.80 257.85
  L 361.00 75.32
  Q 362.26 73.08 361.94 70.53
  C 361.37 66.11 357.44 65.27 353.36 65.26
  Q 331.67 65.23 309.95 65.26
  C 304.57 65.26 299.54 66.47 296.98 71.02
  Q 244.29 164.33 191.53 257.97
  A 0.63 0.62 -44.5 0 0 191.52 258.57
  Q 224.26 318.61 256.81 378.82
  Z
  M 170.03 136.17
  C 167.42 131.70 163.19 128.99 157.94 128.98
  Q 134.50 128.92 111.07 129.05
  C 104.65 129.08 103.24 135.39 106.04 140.20
  Q 121.22 166.27 136.99 193.30
  A 1.24 1.24 0.0 0 1 137.00 194.55
  Q 112.97 236.69 88.95 279.24
  C 84.90 286.41 86.07 291.74 95.32 291.75
  Q 116.86 291.76 138.42 291.74
  C 143.55 291.73 148.50 290.49 151.01 286.23
  Q 160.10 270.78 203.29 194.22
  A 0.89 0.88 -45.9 0 0 203.28 193.35
  Q 186.63 164.69 170.03 136.17
  Z"
/>
<path fill="#ffffff" d="
  M 270.50 388.75
  C 264.08 388.75 259.64 384.05 256.81 378.82
  Q 224.26 318.61 191.52 258.57
  A 0.63 0.62 -44.5 0 1 191.53 257.97
  Q 244.29 164.33 296.98 71.02
  C 299.54 66.47 304.57 65.26 309.95 65.26
  Q 331.67 65.23 353.36 65.26
  C 357.44 65.27 361.37 66.11 361.94 70.53
  Q 362.26 73.08 361.00 75.32
  L 257.80 257.85
  A 0.79 0.79 0.0 0 0 257.79 258.62
  Q 289.92 317.31 322.06 376.07
  C 325.87 383.03 325.19 388.77 316.02 388.76
  Q 293.26 388.74 270.50 388.75
  Z"
/>
<path fill="#ffffff" d="
  M 157.94 128.98
  C 163.19 128.99 167.42 131.70 170.03 136.17
  Q 186.63 164.69 203.28 193.35
  A 0.89 0.88 -45.9 0 1 203.29 194.22
  Q 160.10 270.78 151.01 286.23
  C 148.50 290.49 143.55 291.73 138.42 291.74
  Q 116.86 291.76 95.32 291.75
  C 86.07 291.74 84.90 286.41 88.95 279.24
  Q 112.97 236.69 137.00 194.55
  A 1.24 1.24 0.0 0 0 136.99 193.30
  Q 121.22 166.27 106.04 140.20
  C 103.24 135.39 104.65 129.08 111.07 129.05
  Q 134.50 128.92 157.94 128.98
  Z"
/>
</svg>
